<?xml version="1.0" encoding="iso-8859-1"?>
<!-- Generator: Adobe Illustrator 19.0.0, SVG Export Plug-In . SVG Version: 6.00 Build 0)  -->
<svg version="1.1" id="Capa_1" xmlns="http://www.w3.org/2000/svg" xmlns:xlink="http://www.w3.org/1999/xlink" x="0px" y="0px"
	 viewBox="0 0 512 512" style="enable-background:new 0 0 512 512;" xml:space="preserve">
<g>
	<path style="fill:#CACBCB;" d="M219.532,99.258l-101.061,83.259c8.303,4.038,15.999,10.601,18.626,19.615l85.866-70.969h2.977
		V99.258H219.532z"/>
	<path style="fill:#CACBCB;" d="M120.531,234.819v112.742H93.746V234.819c4.09,1.87,8.623,2.904,13.392,2.904
		C111.909,237.723,116.441,236.689,120.531,234.819z"/>
</g>
<path style="fill:#B4B4B5;" d="M93.746,234.819v112.742h13.392V237.723C102.369,237.723,97.836,236.688,93.746,234.819z"/>
<path style="fill:#DDDEDE;" d="M222.519,360.594v20.253h-0.639H58.329H57.69v-20.253c0-8.726,7.077-15.803,15.803-15.803h20.253
	h26.785h86.185C215.442,344.791,222.519,351.869,222.519,360.594z"/>
<g>
	<path style="fill:#CACBCB;" d="M123.54,344.791h-3.009H93.746H73.493c-8.726,0-15.803,7.077-15.803,15.803v20.253h0.639h49.409
		v-20.253C107.737,351.869,114.815,344.791,123.54,344.791z"/>
	<path style="fill:#CACBCB;" d="M93.746,237.634l-51.602,42.771c-5.697,4.708-14.144,3.904-18.852-1.803s-3.894-14.144,1.803-18.852
		l51.686-42.711C79.202,226.125,85.557,233.42,93.746,237.634z"/>
</g>
<g>
	<path style="fill:#B4B4B5;" d="M225.939,110.426V99.258h-6.408l-101.061,83.259c3.938,1.915,7.733,4.406,10.922,7.449
		L225.939,110.426z"/>
	<path style="fill:#B4B4B5;" d="M33.521,269.256l49.159-40.623c-2.701-3.371-4.748-7.277-5.899-11.595L25.095,259.75
		c-5.697,4.708-6.511,13.145-1.803,18.852c1.572,1.906,3.565,3.251,5.73,4.041C27.9,277.843,29.466,272.606,33.521,269.256z"/>
</g>
<polygon style="fill:#FDCD08;" points="371.895,245.894 371.803,245.873 298.742,270.835 291.665,418.964 291.665,439.766 
	492.777,439.766 492.777,418.964 "/>
<polygon style="fill:#F2C516;" points="371.896,245.907 371.803,245.873 298.742,270.835 328.729,426.631 331.422,439.766 
	453.02,439.766 455.713,426.631 "/>
<path style="fill:#F6911E;" d="M219.532,99.258c3.338-17.678,15.175-33.409,32.986-40.95c28.289-11.981,60.935,1.236,72.916,29.525
	l11.507,27.156c24.92-2.411,49.572,11.384,59.854,35.655l15.378,36.043l-177.852,77.236l-15.85-37.725
	c-10.292-24.281-3.039-51.581,16.019-67.807l-11.497-27.156c-0.01-0.021-0.021-0.052-0.031-0.072
	c-2.988-7.067-4.399-14.392-4.399-21.613C218.563,106.078,218.893,102.627,219.532,99.258z"/>
<path style="fill:#ED7223;" d="M248.607,216.416c-10.292-24.281-3.039-51.581,16.019-67.807l-11.497-27.156
	c-0.01-0.021-0.021-0.052-0.031-0.072c-2.988-7.067-4.399-14.392-4.399-21.613c0-3.472,0.33-6.923,0.968-10.292
	c2.678-14.184,10.837-27.103,23.153-35.555c-6.793,0.168-13.668,1.575-20.304,4.385c-17.812,7.541-29.649,23.272-32.986,40.95
	c-0.639,3.369-0.968,6.82-0.968,10.292c0,7.222,1.411,14.546,4.399,21.613c0.01,0.021,0.021,0.052,0.031,0.072l11.497,27.156
	c-19.058,16.225-26.311,43.525-16.019,67.807l15.85,37.725l28.961-12.577L248.607,216.416z"/>
<g>
	<path style="fill:#F6911E;" d="M370.463,223.158l-2.213-5.202l-82.831,33.482l3.463,6.283c2.246,5.295,5.676,9.735,9.859,13.114
		c6.037,4.904,13.629,7.623,21.459,7.623c4.419,0,8.921-0.865,13.248-2.699l18.966-8.035c9.797-4.152,16.637-12.362,19.388-21.85
		C373.915,238.631,373.636,230.647,370.463,223.158z"/>
	<path style="fill:#F6911E;" d="M253.425,401.06v30.267H26.785V401.06c0-17.42,14.124-31.544,31.544-31.544H221.88
		C239.301,369.516,253.425,383.639,253.425,401.06z"/>
</g>
<path style="fill:#ED7223;" d="M108.376,369.516H58.329c-17.42,0-31.544,14.124-31.544,31.544v30.267h50.047V401.06
	C76.832,383.639,90.956,369.516,108.376,369.516z"/>
<path style="fill:#666767;" d="M138.807,200.628c0.845,2.926,1.298,6.016,1.298,9.21c0,13.434-8.046,25.002-19.573,30.122v0.01
	c-4.09,1.823-8.623,2.833-13.392,2.833c-4.77,0-9.303-1.01-13.392-2.833v-0.01c-0.567-0.237-1.113-0.505-1.659-0.783
	c-8.19-4.213-14.392-11.765-16.813-20.851c-0.721-2.709-1.102-5.553-1.102-8.489c0-18.203,14.762-32.966,32.966-32.966
	c5.151,0,10.034,1.185,14.381,3.286C129.823,184.196,136.18,191.614,138.807,200.628z M118.471,209.838
	c0-6.264-5.068-11.332-11.332-11.332c-6.264,0-11.332,5.068-11.332,11.332s5.068,11.332,11.332,11.332
	C113.402,221.169,118.471,216.101,118.471,209.838z"/>
<path style="fill:#BB7A58;" d="M512,425.578v25.919c0,3.657-2.957,6.614-6.614,6.614H6.614c-3.657,0-6.614-2.957-6.614-6.614
	v-25.919c0-3.657,2.957-6.614,6.614-6.614h20.171h226.64h38.24h201.112h12.609C509.043,418.964,512,421.921,512,425.578z"/>
<path style="fill:#AA624F;" d="M59.1,438.538c-10.81,0-19.573-8.764-19.573-19.573l0,0H26.785H6.614
	c-3.653,0-6.614,2.961-6.614,6.614v25.919c0,3.653,2.961,6.614,6.614,6.614h498.772c3.653,0,6.614-2.961,6.614-6.614v-12.96
	L59.1,438.538L59.1,438.538z"/>
<path style="fill:#CACBCB;" d="M429.596,185.793c0.608,1.442,0.896,2.936,0.896,4.409c0,4.419-2.596,8.612-6.913,10.446
	l-53.116,22.509l-134.706,57.062c-5.759,2.442-12.403-0.247-14.845-6.016c-0.608-1.442-0.907-2.946-0.907-4.419
	c0-4.409,2.596-8.602,6.913-10.436l4.749-2.009l178.324-75.543l4.749-2.009C420.499,177.346,427.154,180.034,429.596,185.793z"/>
<g>
</g>
<g>
</g>
<g>
</g>
<g>
</g>
<g>
</g>
<g>
</g>
<g>
</g>
<g>
</g>
<g>
</g>
<g>
</g>
<g>
</g>
<g>
</g>
<g>
</g>
<g>
</g>
<g>
</g>
</svg>
