<?xml version="1.0"?>
<svg xmlns="http://www.w3.org/2000/svg" xmlns:xlink="http://www.w3.org/1999/xlink" version="1.1" id="Capa_1" x="0px" y="0px" viewBox="0 0 58 58" style="enable-background:new 0 0 58 58;" xml:space="preserve" width="512px" height="512px"><g><path style="fill:#424A60;" d="M32.595,58H7.405C5.525,58,4,56.475,4,54.595V3.405C4,1.525,5.525,0,7.405,0h25.189  C34.475,0,36,1.525,36,3.405v51.189C36,56.475,34.475,58,32.595,58z" data-original="#424A60"/><rect x="4" y="6" style="fill:#E7ECED;" width="32" height="40" data-original="#E7ECED"/><circle style="fill:#262B35;" cx="20" cy="52" r="3" data-original="#262B35"/><path style="fill:#262B35;" d="M20,4h-4c-0.553,0-1-0.447-1-1s0.447-1,1-1h4c0.553,0,1,0.447,1,1S20.553,4,20,4z" data-original="#262B35"/><path style="fill:#262B35;" d="M24,4h-1c-0.553,0-1-0.447-1-1s0.447-1,1-1h1c0.553,0,1,0.447,1,1S24.553,4,24,4z" data-original="#262B35"/><polygon style="fill:#25AE88;" points="54,12 18,12 18,31 22,31 22,37 30,31 54,31 " data-original="#25AE88"/><g>
	<path style="fill:#57D8AB" d="M24,20h10c0.552,0,1-0.447,1-1s-0.448-1-1-1H24c-0.552,0-1,0.447-1,1S23.448,20,24,20z" data-original="#57D8AB" class="active-path"/>
	<path style="fill:#57D8AB" d="M48,23H24c-0.552,0-1,0.447-1,1s0.448,1,1,1h24c0.552,0,1-0.447,1-1S48.552,23,48,23z" data-original="#57D8AB" class="active-path"/>
</g></g> </svg>
