<?xml version="1.0" encoding="iso-8859-1"?>
<!-- Generator: Adobe Illustrator 19.0.0, SVG Export Plug-In . SVG Version: 6.00 Build 0)  -->
<svg version="1.1" id="Capa_1" xmlns="http://www.w3.org/2000/svg" xmlns:xlink="http://www.w3.org/1999/xlink" x="0px" y="0px"
	 viewBox="0 0 512 512" style="enable-background:new 0 0 512 512;" xml:space="preserve">
<path style="fill:#E6E6E6;" d="M26.483,0h459.034C500.145,0,512,11.855,512,26.483v459.034C512,500.145,500.145,512,485.517,512
	H26.483C11.855,512,0,500.145,0,485.517V26.483C0,11.855,11.855,0,26.483,0z"/>
<rect x="97.103" y="300.138" style="fill:#CCCCCC;" width="52.966" height="158.897"/>
<rect x="97.103" y="423.724" style="fill:#E3646A;" width="52.966" height="35.31"/>
<rect x="414.897" y="123.586" style="fill:#FAD87C;" width="44.138" height="264.828"/>
<g>
	<path style="fill:#CCCCCC;" d="M79.448,211.862h17.655l0,0v88.276l0,0H79.448c-14.627,0-26.483-11.855-26.483-26.483v-35.31
		C52.966,223.718,64.821,211.862,79.448,211.862z"/>
	<polygon style="fill:#CCCCCC;" points="414.897,141.241 211.862,186.359 211.862,325.641 414.897,370.759 	"/>
</g>
<polygon style="fill:#FAD87C;" points="97.103,211.862 97.103,300.138 211.862,325.641 211.862,186.359 "/>
<path style="opacity:0.3;fill:#E97424;enable-background:new    ;" d="M134.886,203.467l0.671,9.11
	c3.01,40.819,24.532,78.018,58.43,100.961l17.876,12.103L97.103,300.138v-88.276L134.886,203.467z"/>
<path style="fill:#2996BF;" d="M26.483,0h459.034C500.145,0,512,11.855,512,26.483v44.138l0,0H0l0,0V26.483
	C0,11.855,11.855,0,26.483,0z"/>
<g>
	<rect x="123.586" y="229.517" style="fill:#006684;" width="17.655" height="26.483"/>
	<rect x="158.897" y="229.517" style="fill:#006684;" width="17.655" height="26.483"/>
</g>
<g>
	<rect x="370.759" y="167.724" style="fill:#F7F8EB;" width="17.655" height="132.414"/>
	<rect x="370.759" y="317.793" style="fill:#F7F8EB;" width="17.655" height="17.655"/>
</g>
<g>
	<rect x="61.793" y="26.483" style="fill:#006684;" width="17.655" height="17.655"/>
	<rect x="97.103" y="26.483" style="fill:#006684;" width="17.655" height="17.655"/>
	<rect x="26.483" y="26.483" style="fill:#006684;" width="17.655" height="17.655"/>
</g>
<g>
</g>
<g>
</g>
<g>
</g>
<g>
</g>
<g>
</g>
<g>
</g>
<g>
</g>
<g>
</g>
<g>
</g>
<g>
</g>
<g>
</g>
<g>
</g>
<g>
</g>
<g>
</g>
<g>
</g>
</svg>
